<?xml version="1.0" encoding="utf-8" standalone="no"?>
<!DOCTYPE svg PUBLIC "-//W3C//DTD SVG 1.1//EN"
  "http://www.w3.org/Graphics/SVG/1.1/DTD/svg11.dtd">
<svg xmlns:xlink="http://www.w3.org/1999/xlink" width="720pt" height="720pt" viewBox="0 0 720 720" xmlns="http://www.w3.org/2000/svg" version="1.1">
 <metadata>
  <rdf:RDF xmlns:dc="http://purl.org/dc/elements/1.1/" xmlns:cc="http://creativecommons.org/ns#" xmlns:rdf="http://www.w3.org/1999/02/22-rdf-syntax-ns#">
   <cc:Work>
    <dc:type rdf:resource="http://purl.org/dc/dcmitype/StillImage"/>
    <dc:date>2024-12-06T09:35:36.249193</dc:date>
    <dc:format>image/svg+xml</dc:format>
    <dc:creator>
     <cc:Agent>
      <dc:title>Matplotlib v3.9.2, https://matplotlib.org/</dc:title>
     </cc:Agent>
    </dc:creator>
   </cc:Work>
  </rdf:RDF>
 </metadata>
 <defs>
  <style type="text/css">*{stroke-linejoin: round; stroke-linecap: butt}</style>
 </defs>
 <g id="figure_1">
  <g id="patch_1">
   <path d="M 0 720 
L 720 720 
L 720 0 
L 0 0 
L 0 720 
z
" style="fill: none"/>
  </g>
  <g id="axes_1">
   <g id="legend_1">
    <g id="patch_2">
     <path d="M 173.674219 417.446875 
L 564.325781 417.446875 
Q 566.325781 417.446875 566.325781 415.446875 
L 566.325781 311.753125 
Q 566.325781 309.753125 564.325781 309.753125 
L 173.674219 309.753125 
Q 171.674219 309.753125 171.674219 311.753125 
L 171.674219 415.446875 
Q 171.674219 417.446875 173.674219 417.446875 
z
" style="fill: #ffffff; opacity: 0.8; stroke: #cccccc; stroke-linejoin: miter"/>
    </g>
    <g id="line2d_1">
     <path d="M 175.674219 317.851562 
L 185.674219 317.851562 
L 195.674219 317.851562 
" style="fill: none; stroke: #1f77b4; stroke-width: 1.5; stroke-linecap: square"/>
     <defs>
      <path id="mfab69ac68e" d="M 0 3 
C 0.795609 3 1.55874 2.683901 2.12132 2.12132 
C 2.683901 1.55874 3 0.795609 3 0 
C 3 -0.795609 2.683901 -1.55874 2.12132 -2.12132 
C 1.55874 -2.683901 0.795609 -3 0 -3 
C -0.795609 -3 -1.55874 -2.683901 -2.12132 -2.12132 
C -2.683901 -1.55874 -3 -0.795609 -3 0 
C -3 0.795609 -2.683901 1.55874 -2.12132 2.12132 
C -1.55874 2.683901 -0.795609 3 0 3 
z
" style="stroke: #1f77b4"/>
     </defs>
     <g>
      <use xlink:href="#mfab69ac68e" x="185.674219" y="317.851562" style="fill: #1f77b4; stroke: #1f77b4"/>
     </g>
    </g>
    <g id="text_1">
     <!-- sync (QD=1) -->
     <g transform="translate(203.674219 321.351562) scale(0.1 -0.1)">
      <defs>
       <path id="DejaVuSans-73" d="M 2834 3397 
L 2834 2853 
Q 2591 2978 2328 3040 
Q 2066 3103 1784 3103 
Q 1356 3103 1142 2972 
Q 928 2841 928 2578 
Q 928 2378 1081 2264 
Q 1234 2150 1697 2047 
L 1894 2003 
Q 2506 1872 2764 1633 
Q 3022 1394 3022 966 
Q 3022 478 2636 193 
Q 2250 -91 1575 -91 
Q 1294 -91 989 -36 
Q 684 19 347 128 
L 347 722 
Q 666 556 975 473 
Q 1284 391 1588 391 
Q 1994 391 2212 530 
Q 2431 669 2431 922 
Q 2431 1156 2273 1281 
Q 2116 1406 1581 1522 
L 1381 1569 
Q 847 1681 609 1914 
Q 372 2147 372 2553 
Q 372 3047 722 3315 
Q 1072 3584 1716 3584 
Q 2034 3584 2315 3537 
Q 2597 3491 2834 3397 
z
" transform="scale(0.015625)"/>
       <path id="DejaVuSans-79" d="M 2059 -325 
Q 1816 -950 1584 -1140 
Q 1353 -1331 966 -1331 
L 506 -1331 
L 506 -850 
L 844 -850 
Q 1081 -850 1212 -737 
Q 1344 -625 1503 -206 
L 1606 56 
L 191 3500 
L 800 3500 
L 1894 763 
L 2988 3500 
L 3597 3500 
L 2059 -325 
z
" transform="scale(0.015625)"/>
       <path id="DejaVuSans-6e" d="M 3513 2113 
L 3513 0 
L 2938 0 
L 2938 2094 
Q 2938 2591 2744 2837 
Q 2550 3084 2163 3084 
Q 1697 3084 1428 2787 
Q 1159 2491 1159 1978 
L 1159 0 
L 581 0 
L 581 3500 
L 1159 3500 
L 1159 2956 
Q 1366 3272 1645 3428 
Q 1925 3584 2291 3584 
Q 2894 3584 3203 3211 
Q 3513 2838 3513 2113 
z
" transform="scale(0.015625)"/>
       <path id="DejaVuSans-63" d="M 3122 3366 
L 3122 2828 
Q 2878 2963 2633 3030 
Q 2388 3097 2138 3097 
Q 1578 3097 1268 2742 
Q 959 2388 959 1747 
Q 959 1106 1268 751 
Q 1578 397 2138 397 
Q 2388 397 2633 464 
Q 2878 531 3122 666 
L 3122 134 
Q 2881 22 2623 -34 
Q 2366 -91 2075 -91 
Q 1284 -91 818 406 
Q 353 903 353 1747 
Q 353 2603 823 3093 
Q 1294 3584 2113 3584 
Q 2378 3584 2631 3529 
Q 2884 3475 3122 3366 
z
" transform="scale(0.015625)"/>
       <path id="DejaVuSans-20" transform="scale(0.015625)"/>
       <path id="DejaVuSans-28" d="M 1984 4856 
Q 1566 4138 1362 3434 
Q 1159 2731 1159 2009 
Q 1159 1288 1364 580 
Q 1569 -128 1984 -844 
L 1484 -844 
Q 1016 -109 783 600 
Q 550 1309 550 2009 
Q 550 2706 781 3412 
Q 1013 4119 1484 4856 
L 1984 4856 
z
" transform="scale(0.015625)"/>
       <path id="DejaVuSans-51" d="M 2522 4238 
Q 1834 4238 1429 3725 
Q 1025 3213 1025 2328 
Q 1025 1447 1429 934 
Q 1834 422 2522 422 
Q 3209 422 3611 934 
Q 4013 1447 4013 2328 
Q 4013 3213 3611 3725 
Q 3209 4238 2522 4238 
z
M 3406 84 
L 4238 -825 
L 3475 -825 
L 2784 -78 
Q 2681 -84 2626 -87 
Q 2572 -91 2522 -91 
Q 1538 -91 948 567 
Q 359 1225 359 2328 
Q 359 3434 948 4092 
Q 1538 4750 2522 4750 
Q 3503 4750 4090 4092 
Q 4678 3434 4678 2328 
Q 4678 1516 4351 937 
Q 4025 359 3406 84 
z
" transform="scale(0.015625)"/>
       <path id="DejaVuSans-44" d="M 1259 4147 
L 1259 519 
L 2022 519 
Q 2988 519 3436 956 
Q 3884 1394 3884 2338 
Q 3884 3275 3436 3711 
Q 2988 4147 2022 4147 
L 1259 4147 
z
M 628 4666 
L 1925 4666 
Q 3281 4666 3915 4102 
Q 4550 3538 4550 2338 
Q 4550 1131 3912 565 
Q 3275 0 1925 0 
L 628 0 
L 628 4666 
z
" transform="scale(0.015625)"/>
       <path id="DejaVuSans-3d" d="M 678 2906 
L 4684 2906 
L 4684 2381 
L 678 2381 
L 678 2906 
z
M 678 1631 
L 4684 1631 
L 4684 1100 
L 678 1100 
L 678 1631 
z
" transform="scale(0.015625)"/>
       <path id="DejaVuSans-31" d="M 794 531 
L 1825 531 
L 1825 4091 
L 703 3866 
L 703 4441 
L 1819 4666 
L 2450 4666 
L 2450 531 
L 3481 531 
L 3481 0 
L 794 0 
L 794 531 
z
" transform="scale(0.015625)"/>
       <path id="DejaVuSans-29" d="M 513 4856 
L 1013 4856 
Q 1481 4119 1714 3412 
Q 1947 2706 1947 2009 
Q 1947 1309 1714 600 
Q 1481 -109 1013 -844 
L 513 -844 
Q 928 -128 1133 580 
Q 1338 1288 1338 2009 
Q 1338 2731 1133 3434 
Q 928 4138 513 4856 
z
" transform="scale(0.015625)"/>
      </defs>
      <use xlink:href="#DejaVuSans-73"/>
      <use xlink:href="#DejaVuSans-79" x="52.099609"/>
      <use xlink:href="#DejaVuSans-6e" x="111.279297"/>
      <use xlink:href="#DejaVuSans-63" x="174.658203"/>
      <use xlink:href="#DejaVuSans-20" x="229.638672"/>
      <use xlink:href="#DejaVuSans-28" x="261.425781"/>
      <use xlink:href="#DejaVuSans-51" x="300.439453"/>
      <use xlink:href="#DejaVuSans-44" x="379.150391"/>
      <use xlink:href="#DejaVuSans-3d" x="456.152344"/>
      <use xlink:href="#DejaVuSans-31" x="539.941406"/>
      <use xlink:href="#DejaVuSans-29" x="603.564453"/>
     </g>
    </g>
    <g id="line2d_2">
     <path d="M 175.674219 332.529688 
L 185.674219 332.529688 
L 195.674219 332.529688 
" style="fill: none; stroke: #aec7e8; stroke-width: 1.5; stroke-linecap: square"/>
     <defs>
      <path id="m0587cfe8d5" d="M 0 3 
C 0.795609 3 1.55874 2.683901 2.12132 2.12132 
C 2.683901 1.55874 3 0.795609 3 0 
C 3 -0.795609 2.683901 -1.55874 2.12132 -2.12132 
C 1.55874 -2.683901 0.795609 -3 0 -3 
C -0.795609 -3 -1.55874 -2.683901 -2.12132 -2.12132 
C -2.683901 -1.55874 -3 -0.795609 -3 0 
C -3 0.795609 -2.683901 1.55874 -2.12132 2.12132 
C -1.55874 2.683901 -0.795609 3 0 3 
z
" style="stroke: #aec7e8"/>
     </defs>
     <g>
      <use xlink:href="#m0587cfe8d5" x="185.674219" y="332.529688" style="fill: #aec7e8; stroke: #aec7e8"/>
     </g>
    </g>
    <g id="text_2">
     <!-- sync (QD=2) -->
     <g transform="translate(203.674219 336.029688) scale(0.1 -0.1)">
      <defs>
       <path id="DejaVuSans-32" d="M 1228 531 
L 3431 531 
L 3431 0 
L 469 0 
L 469 531 
Q 828 903 1448 1529 
Q 2069 2156 2228 2338 
Q 2531 2678 2651 2914 
Q 2772 3150 2772 3378 
Q 2772 3750 2511 3984 
Q 2250 4219 1831 4219 
Q 1534 4219 1204 4116 
Q 875 4013 500 3803 
L 500 4441 
Q 881 4594 1212 4672 
Q 1544 4750 1819 4750 
Q 2544 4750 2975 4387 
Q 3406 4025 3406 3419 
Q 3406 3131 3298 2873 
Q 3191 2616 2906 2266 
Q 2828 2175 2409 1742 
Q 1991 1309 1228 531 
z
" transform="scale(0.015625)"/>
      </defs>
      <use xlink:href="#DejaVuSans-73"/>
      <use xlink:href="#DejaVuSans-79" x="52.099609"/>
      <use xlink:href="#DejaVuSans-6e" x="111.279297"/>
      <use xlink:href="#DejaVuSans-63" x="174.658203"/>
      <use xlink:href="#DejaVuSans-20" x="229.638672"/>
      <use xlink:href="#DejaVuSans-28" x="261.425781"/>
      <use xlink:href="#DejaVuSans-51" x="300.439453"/>
      <use xlink:href="#DejaVuSans-44" x="379.150391"/>
      <use xlink:href="#DejaVuSans-3d" x="456.152344"/>
      <use xlink:href="#DejaVuSans-32" x="539.941406"/>
      <use xlink:href="#DejaVuSans-29" x="603.564453"/>
     </g>
    </g>
    <g id="line2d_3">
     <path d="M 175.674219 347.207812 
L 185.674219 347.207812 
L 195.674219 347.207812 
" style="fill: none; stroke: #ff7f0e; stroke-width: 1.5; stroke-linecap: square"/>
     <defs>
      <path id="m4032957b05" d="M 0 3 
C 0.795609 3 1.55874 2.683901 2.12132 2.12132 
C 2.683901 1.55874 3 0.795609 3 0 
C 3 -0.795609 2.683901 -1.55874 2.12132 -2.12132 
C 1.55874 -2.683901 0.795609 -3 0 -3 
C -0.795609 -3 -1.55874 -2.683901 -2.12132 -2.12132 
C -2.683901 -1.55874 -3 -0.795609 -3 0 
C -3 0.795609 -2.683901 1.55874 -2.12132 2.12132 
C -1.55874 2.683901 -0.795609 3 0 3 
z
" style="stroke: #ff7f0e"/>
     </defs>
     <g>
      <use xlink:href="#m4032957b05" x="185.674219" y="347.207812" style="fill: #ff7f0e; stroke: #ff7f0e"/>
     </g>
    </g>
    <g id="text_3">
     <!-- sync (QD=4) -->
     <g transform="translate(203.674219 350.707812) scale(0.1 -0.1)">
      <defs>
       <path id="DejaVuSans-34" d="M 2419 4116 
L 825 1625 
L 2419 1625 
L 2419 4116 
z
M 2253 4666 
L 3047 4666 
L 3047 1625 
L 3713 1625 
L 3713 1100 
L 3047 1100 
L 3047 0 
L 2419 0 
L 2419 1100 
L 313 1100 
L 313 1709 
L 2253 4666 
z
" transform="scale(0.015625)"/>
      </defs>
      <use xlink:href="#DejaVuSans-73"/>
      <use xlink:href="#DejaVuSans-79" x="52.099609"/>
      <use xlink:href="#DejaVuSans-6e" x="111.279297"/>
      <use xlink:href="#DejaVuSans-63" x="174.658203"/>
      <use xlink:href="#DejaVuSans-20" x="229.638672"/>
      <use xlink:href="#DejaVuSans-28" x="261.425781"/>
      <use xlink:href="#DejaVuSans-51" x="300.439453"/>
      <use xlink:href="#DejaVuSans-44" x="379.150391"/>
      <use xlink:href="#DejaVuSans-3d" x="456.152344"/>
      <use xlink:href="#DejaVuSans-34" x="539.941406"/>
      <use xlink:href="#DejaVuSans-29" x="603.564453"/>
     </g>
    </g>
    <g id="line2d_4">
     <path d="M 175.674219 361.885938 
L 185.674219 361.885938 
L 195.674219 361.885938 
" style="fill: none; stroke: #ffbb78; stroke-width: 1.5; stroke-linecap: square"/>
     <defs>
      <path id="m1c1ce075e4" d="M 0 3 
C 0.795609 3 1.55874 2.683901 2.12132 2.12132 
C 2.683901 1.55874 3 0.795609 3 0 
C 3 -0.795609 2.683901 -1.55874 2.12132 -2.12132 
C 1.55874 -2.683901 0.795609 -3 0 -3 
C -0.795609 -3 -1.55874 -2.683901 -2.12132 -2.12132 
C -2.683901 -1.55874 -3 -0.795609 -3 0 
C -3 0.795609 -2.683901 1.55874 -2.12132 2.12132 
C -1.55874 2.683901 -0.795609 3 0 3 
z
" style="stroke: #ffbb78"/>
     </defs>
     <g>
      <use xlink:href="#m1c1ce075e4" x="185.674219" y="361.885938" style="fill: #ffbb78; stroke: #ffbb78"/>
     </g>
    </g>
    <g id="text_4">
     <!-- sync (QD=32) -->
     <g transform="translate(203.674219 365.385938) scale(0.1 -0.1)">
      <defs>
       <path id="DejaVuSans-33" d="M 2597 2516 
Q 3050 2419 3304 2112 
Q 3559 1806 3559 1356 
Q 3559 666 3084 287 
Q 2609 -91 1734 -91 
Q 1441 -91 1130 -33 
Q 819 25 488 141 
L 488 750 
Q 750 597 1062 519 
Q 1375 441 1716 441 
Q 2309 441 2620 675 
Q 2931 909 2931 1356 
Q 2931 1769 2642 2001 
Q 2353 2234 1838 2234 
L 1294 2234 
L 1294 2753 
L 1863 2753 
Q 2328 2753 2575 2939 
Q 2822 3125 2822 3475 
Q 2822 3834 2567 4026 
Q 2313 4219 1838 4219 
Q 1578 4219 1281 4162 
Q 984 4106 628 3988 
L 628 4550 
Q 988 4650 1302 4700 
Q 1616 4750 1894 4750 
Q 2613 4750 3031 4423 
Q 3450 4097 3450 3541 
Q 3450 3153 3228 2886 
Q 3006 2619 2597 2516 
z
" transform="scale(0.015625)"/>
      </defs>
      <use xlink:href="#DejaVuSans-73"/>
      <use xlink:href="#DejaVuSans-79" x="52.099609"/>
      <use xlink:href="#DejaVuSans-6e" x="111.279297"/>
      <use xlink:href="#DejaVuSans-63" x="174.658203"/>
      <use xlink:href="#DejaVuSans-20" x="229.638672"/>
      <use xlink:href="#DejaVuSans-28" x="261.425781"/>
      <use xlink:href="#DejaVuSans-51" x="300.439453"/>
      <use xlink:href="#DejaVuSans-44" x="379.150391"/>
      <use xlink:href="#DejaVuSans-3d" x="456.152344"/>
      <use xlink:href="#DejaVuSans-33" x="539.941406"/>
      <use xlink:href="#DejaVuSans-32" x="603.564453"/>
      <use xlink:href="#DejaVuSans-29" x="667.1875"/>
     </g>
    </g>
    <g id="line2d_5">
     <path d="M 175.674219 376.564062 
L 185.674219 376.564062 
L 195.674219 376.564062 
" style="fill: none; stroke: #2ca02c; stroke-width: 1.5; stroke-linecap: square"/>
     <defs>
      <path id="m0b9d6c3679" d="M 0 3 
C 0.795609 3 1.55874 2.683901 2.12132 2.12132 
C 2.683901 1.55874 3 0.795609 3 0 
C 3 -0.795609 2.683901 -1.55874 2.12132 -2.12132 
C 1.55874 -2.683901 0.795609 -3 0 -3 
C -0.795609 -3 -1.55874 -2.683901 -2.12132 -2.12132 
C -2.683901 -1.55874 -3 -0.795609 -3 0 
C -3 0.795609 -2.683901 1.55874 -2.12132 2.12132 
C -1.55874 2.683901 -0.795609 3 0 3 
z
" style="stroke: #2ca02c"/>
     </defs>
     <g>
      <use xlink:href="#m0b9d6c3679" x="185.674219" y="376.564062" style="fill: #2ca02c; stroke: #2ca02c"/>
     </g>
    </g>
    <g id="text_5">
     <!-- sync (QD=64) -->
     <g transform="translate(203.674219 380.064062) scale(0.1 -0.1)">
      <defs>
       <path id="DejaVuSans-36" d="M 2113 2584 
Q 1688 2584 1439 2293 
Q 1191 2003 1191 1497 
Q 1191 994 1439 701 
Q 1688 409 2113 409 
Q 2538 409 2786 701 
Q 3034 994 3034 1497 
Q 3034 2003 2786 2293 
Q 2538 2584 2113 2584 
z
M 3366 4563 
L 3366 3988 
Q 3128 4100 2886 4159 
Q 2644 4219 2406 4219 
Q 1781 4219 1451 3797 
Q 1122 3375 1075 2522 
Q 1259 2794 1537 2939 
Q 1816 3084 2150 3084 
Q 2853 3084 3261 2657 
Q 3669 2231 3669 1497 
Q 3669 778 3244 343 
Q 2819 -91 2113 -91 
Q 1303 -91 875 529 
Q 447 1150 447 2328 
Q 447 3434 972 4092 
Q 1497 4750 2381 4750 
Q 2619 4750 2861 4703 
Q 3103 4656 3366 4563 
z
" transform="scale(0.015625)"/>
      </defs>
      <use xlink:href="#DejaVuSans-73"/>
      <use xlink:href="#DejaVuSans-79" x="52.099609"/>
      <use xlink:href="#DejaVuSans-6e" x="111.279297"/>
      <use xlink:href="#DejaVuSans-63" x="174.658203"/>
      <use xlink:href="#DejaVuSans-20" x="229.638672"/>
      <use xlink:href="#DejaVuSans-28" x="261.425781"/>
      <use xlink:href="#DejaVuSans-51" x="300.439453"/>
      <use xlink:href="#DejaVuSans-44" x="379.150391"/>
      <use xlink:href="#DejaVuSans-3d" x="456.152344"/>
      <use xlink:href="#DejaVuSans-36" x="539.941406"/>
      <use xlink:href="#DejaVuSans-34" x="603.564453"/>
      <use xlink:href="#DejaVuSans-29" x="667.1875"/>
     </g>
    </g>
    <g id="line2d_6">
     <path d="M 175.674219 391.242188 
L 185.674219 391.242188 
L 195.674219 391.242188 
" style="fill: none; stroke: #98df8a; stroke-width: 1.5; stroke-linecap: square"/>
     <defs>
      <path id="m8d7d0dc830" d="M 0 3 
C 0.795609 3 1.55874 2.683901 2.12132 2.12132 
C 2.683901 1.55874 3 0.795609 3 0 
C 3 -0.795609 2.683901 -1.55874 2.12132 -2.12132 
C 1.55874 -2.683901 0.795609 -3 0 -3 
C -0.795609 -3 -1.55874 -2.683901 -2.12132 -2.12132 
C -2.683901 -1.55874 -3 -0.795609 -3 0 
C -3 0.795609 -2.683901 1.55874 -2.12132 2.12132 
C -1.55874 2.683901 -0.795609 3 0 3 
z
" style="stroke: #98df8a"/>
     </defs>
     <g>
      <use xlink:href="#m8d7d0dc830" x="185.674219" y="391.242188" style="fill: #98df8a; stroke: #98df8a"/>
     </g>
    </g>
    <g id="text_6">
     <!-- sync (QD=128) -->
     <g transform="translate(203.674219 394.742188) scale(0.1 -0.1)">
      <defs>
       <path id="DejaVuSans-38" d="M 2034 2216 
Q 1584 2216 1326 1975 
Q 1069 1734 1069 1313 
Q 1069 891 1326 650 
Q 1584 409 2034 409 
Q 2484 409 2743 651 
Q 3003 894 3003 1313 
Q 3003 1734 2745 1975 
Q 2488 2216 2034 2216 
z
M 1403 2484 
Q 997 2584 770 2862 
Q 544 3141 544 3541 
Q 544 4100 942 4425 
Q 1341 4750 2034 4750 
Q 2731 4750 3128 4425 
Q 3525 4100 3525 3541 
Q 3525 3141 3298 2862 
Q 3072 2584 2669 2484 
Q 3125 2378 3379 2068 
Q 3634 1759 3634 1313 
Q 3634 634 3220 271 
Q 2806 -91 2034 -91 
Q 1263 -91 848 271 
Q 434 634 434 1313 
Q 434 1759 690 2068 
Q 947 2378 1403 2484 
z
M 1172 3481 
Q 1172 3119 1398 2916 
Q 1625 2713 2034 2713 
Q 2441 2713 2670 2916 
Q 2900 3119 2900 3481 
Q 2900 3844 2670 4047 
Q 2441 4250 2034 4250 
Q 1625 4250 1398 4047 
Q 1172 3844 1172 3481 
z
" transform="scale(0.015625)"/>
      </defs>
      <use xlink:href="#DejaVuSans-73"/>
      <use xlink:href="#DejaVuSans-79" x="52.099609"/>
      <use xlink:href="#DejaVuSans-6e" x="111.279297"/>
      <use xlink:href="#DejaVuSans-63" x="174.658203"/>
      <use xlink:href="#DejaVuSans-20" x="229.638672"/>
      <use xlink:href="#DejaVuSans-28" x="261.425781"/>
      <use xlink:href="#DejaVuSans-51" x="300.439453"/>
      <use xlink:href="#DejaVuSans-44" x="379.150391"/>
      <use xlink:href="#DejaVuSans-3d" x="456.152344"/>
      <use xlink:href="#DejaVuSans-31" x="539.941406"/>
      <use xlink:href="#DejaVuSans-32" x="603.564453"/>
      <use xlink:href="#DejaVuSans-38" x="667.1875"/>
      <use xlink:href="#DejaVuSans-29" x="730.810547"/>
     </g>
    </g>
    <g id="line2d_7">
     <path d="M 175.674219 405.920313 
L 185.674219 405.920313 
L 195.674219 405.920313 
" style="fill: none; stroke: #d62728; stroke-width: 1.5; stroke-linecap: square"/>
     <defs>
      <path id="m5a2fadffb9" d="M 0 3 
C 0.795609 3 1.55874 2.683901 2.12132 2.12132 
C 2.683901 1.55874 3 0.795609 3 0 
C 3 -0.795609 2.683901 -1.55874 2.12132 -2.12132 
C 1.55874 -2.683901 0.795609 -3 0 -3 
C -0.795609 -3 -1.55874 -2.683901 -2.12132 -2.12132 
C -2.683901 -1.55874 -3 -0.795609 -3 0 
C -3 0.795609 -2.683901 1.55874 -2.12132 2.12132 
C -1.55874 2.683901 -0.795609 3 0 3 
z
" style="stroke: #d62728"/>
     </defs>
     <g>
      <use xlink:href="#m5a2fadffb9" x="185.674219" y="405.920313" style="fill: #d62728; stroke: #d62728"/>
     </g>
    </g>
    <g id="text_7">
     <!-- sync (QD=512) -->
     <g transform="translate(203.674219 409.420313) scale(0.1 -0.1)">
      <defs>
       <path id="DejaVuSans-35" d="M 691 4666 
L 3169 4666 
L 3169 4134 
L 1269 4134 
L 1269 2991 
Q 1406 3038 1543 3061 
Q 1681 3084 1819 3084 
Q 2600 3084 3056 2656 
Q 3513 2228 3513 1497 
Q 3513 744 3044 326 
Q 2575 -91 1722 -91 
Q 1428 -91 1123 -41 
Q 819 9 494 109 
L 494 744 
Q 775 591 1075 516 
Q 1375 441 1709 441 
Q 2250 441 2565 725 
Q 2881 1009 2881 1497 
Q 2881 1984 2565 2268 
Q 2250 2553 1709 2553 
Q 1456 2553 1204 2497 
Q 953 2441 691 2322 
L 691 4666 
z
" transform="scale(0.015625)"/>
      </defs>
      <use xlink:href="#DejaVuSans-73"/>
      <use xlink:href="#DejaVuSans-79" x="52.099609"/>
      <use xlink:href="#DejaVuSans-6e" x="111.279297"/>
      <use xlink:href="#DejaVuSans-63" x="174.658203"/>
      <use xlink:href="#DejaVuSans-20" x="229.638672"/>
      <use xlink:href="#DejaVuSans-28" x="261.425781"/>
      <use xlink:href="#DejaVuSans-51" x="300.439453"/>
      <use xlink:href="#DejaVuSans-44" x="379.150391"/>
      <use xlink:href="#DejaVuSans-3d" x="456.152344"/>
      <use xlink:href="#DejaVuSans-35" x="539.941406"/>
      <use xlink:href="#DejaVuSans-31" x="603.564453"/>
      <use xlink:href="#DejaVuSans-32" x="667.1875"/>
      <use xlink:href="#DejaVuSans-29" x="730.810547"/>
     </g>
    </g>
    <g id="line2d_8">
     <path d="M 300.658594 317.851562 
L 310.658594 317.851562 
L 320.658594 317.851562 
" style="fill: none; stroke: #ff9896; stroke-width: 1.5; stroke-linecap: square"/>
     <defs>
      <path id="m9b04efd775" d="M 0 3 
C 0.795609 3 1.55874 2.683901 2.12132 2.12132 
C 2.683901 1.55874 3 0.795609 3 0 
C 3 -0.795609 2.683901 -1.55874 2.12132 -2.12132 
C 1.55874 -2.683901 0.795609 -3 0 -3 
C -0.795609 -3 -1.55874 -2.683901 -2.12132 -2.12132 
C -2.683901 -1.55874 -3 -0.795609 -3 0 
C -3 0.795609 -2.683901 1.55874 -2.12132 2.12132 
C -1.55874 2.683901 -0.795609 3 0 3 
z
" style="stroke: #ff9896"/>
     </defs>
     <g>
      <use xlink:href="#m9b04efd775" x="310.658594" y="317.851562" style="fill: #ff9896; stroke: #ff9896"/>
     </g>
    </g>
    <g id="text_8">
     <!-- liburing (QD=1) -->
     <g transform="translate(328.658594 321.351562) scale(0.1 -0.1)">
      <defs>
       <path id="DejaVuSans-6c" d="M 603 4863 
L 1178 4863 
L 1178 0 
L 603 0 
L 603 4863 
z
" transform="scale(0.015625)"/>
       <path id="DejaVuSans-69" d="M 603 3500 
L 1178 3500 
L 1178 0 
L 603 0 
L 603 3500 
z
M 603 4863 
L 1178 4863 
L 1178 4134 
L 603 4134 
L 603 4863 
z
" transform="scale(0.015625)"/>
       <path id="DejaVuSans-62" d="M 3116 1747 
Q 3116 2381 2855 2742 
Q 2594 3103 2138 3103 
Q 1681 3103 1420 2742 
Q 1159 2381 1159 1747 
Q 1159 1113 1420 752 
Q 1681 391 2138 391 
Q 2594 391 2855 752 
Q 3116 1113 3116 1747 
z
M 1159 2969 
Q 1341 3281 1617 3432 
Q 1894 3584 2278 3584 
Q 2916 3584 3314 3078 
Q 3713 2572 3713 1747 
Q 3713 922 3314 415 
Q 2916 -91 2278 -91 
Q 1894 -91 1617 61 
Q 1341 213 1159 525 
L 1159 0 
L 581 0 
L 581 4863 
L 1159 4863 
L 1159 2969 
z
" transform="scale(0.015625)"/>
       <path id="DejaVuSans-75" d="M 544 1381 
L 544 3500 
L 1119 3500 
L 1119 1403 
Q 1119 906 1312 657 
Q 1506 409 1894 409 
Q 2359 409 2629 706 
Q 2900 1003 2900 1516 
L 2900 3500 
L 3475 3500 
L 3475 0 
L 2900 0 
L 2900 538 
Q 2691 219 2414 64 
Q 2138 -91 1772 -91 
Q 1169 -91 856 284 
Q 544 659 544 1381 
z
M 1991 3584 
L 1991 3584 
z
" transform="scale(0.015625)"/>
       <path id="DejaVuSans-72" d="M 2631 2963 
Q 2534 3019 2420 3045 
Q 2306 3072 2169 3072 
Q 1681 3072 1420 2755 
Q 1159 2438 1159 1844 
L 1159 0 
L 581 0 
L 581 3500 
L 1159 3500 
L 1159 2956 
Q 1341 3275 1631 3429 
Q 1922 3584 2338 3584 
Q 2397 3584 2469 3576 
Q 2541 3569 2628 3553 
L 2631 2963 
z
" transform="scale(0.015625)"/>
       <path id="DejaVuSans-67" d="M 2906 1791 
Q 2906 2416 2648 2759 
Q 2391 3103 1925 3103 
Q 1463 3103 1205 2759 
Q 947 2416 947 1791 
Q 947 1169 1205 825 
Q 1463 481 1925 481 
Q 2391 481 2648 825 
Q 2906 1169 2906 1791 
z
M 3481 434 
Q 3481 -459 3084 -895 
Q 2688 -1331 1869 -1331 
Q 1566 -1331 1297 -1286 
Q 1028 -1241 775 -1147 
L 775 -588 
Q 1028 -725 1275 -790 
Q 1522 -856 1778 -856 
Q 2344 -856 2625 -561 
Q 2906 -266 2906 331 
L 2906 616 
Q 2728 306 2450 153 
Q 2172 0 1784 0 
Q 1141 0 747 490 
Q 353 981 353 1791 
Q 353 2603 747 3093 
Q 1141 3584 1784 3584 
Q 2172 3584 2450 3431 
Q 2728 3278 2906 2969 
L 2906 3500 
L 3481 3500 
L 3481 434 
z
" transform="scale(0.015625)"/>
      </defs>
      <use xlink:href="#DejaVuSans-6c"/>
      <use xlink:href="#DejaVuSans-69" x="27.783203"/>
      <use xlink:href="#DejaVuSans-62" x="55.566406"/>
      <use xlink:href="#DejaVuSans-75" x="119.042969"/>
      <use xlink:href="#DejaVuSans-72" x="182.421875"/>
      <use xlink:href="#DejaVuSans-69" x="223.535156"/>
      <use xlink:href="#DejaVuSans-6e" x="251.318359"/>
      <use xlink:href="#DejaVuSans-67" x="314.697266"/>
      <use xlink:href="#DejaVuSans-20" x="378.173828"/>
      <use xlink:href="#DejaVuSans-28" x="409.960938"/>
      <use xlink:href="#DejaVuSans-51" x="448.974609"/>
      <use xlink:href="#DejaVuSans-44" x="527.685547"/>
      <use xlink:href="#DejaVuSans-3d" x="604.6875"/>
      <use xlink:href="#DejaVuSans-31" x="688.476562"/>
      <use xlink:href="#DejaVuSans-29" x="752.099609"/>
     </g>
    </g>
    <g id="line2d_9">
     <path d="M 300.658594 332.529688 
L 310.658594 332.529688 
L 320.658594 332.529688 
" style="fill: none; stroke: #9467bd; stroke-width: 1.5; stroke-linecap: square"/>
     <defs>
      <path id="m0e4b9110ab" d="M 0 3 
C 0.795609 3 1.55874 2.683901 2.12132 2.12132 
C 2.683901 1.55874 3 0.795609 3 0 
C 3 -0.795609 2.683901 -1.55874 2.12132 -2.12132 
C 1.55874 -2.683901 0.795609 -3 0 -3 
C -0.795609 -3 -1.55874 -2.683901 -2.12132 -2.12132 
C -2.683901 -1.55874 -3 -0.795609 -3 0 
C -3 0.795609 -2.683901 1.55874 -2.12132 2.12132 
C -1.55874 2.683901 -0.795609 3 0 3 
z
" style="stroke: #9467bd"/>
     </defs>
     <g>
      <use xlink:href="#m0e4b9110ab" x="310.658594" y="332.529688" style="fill: #9467bd; stroke: #9467bd"/>
     </g>
    </g>
    <g id="text_9">
     <!-- liburing (QD=2) -->
     <g transform="translate(328.658594 336.029688) scale(0.1 -0.1)">
      <use xlink:href="#DejaVuSans-6c"/>
      <use xlink:href="#DejaVuSans-69" x="27.783203"/>
      <use xlink:href="#DejaVuSans-62" x="55.566406"/>
      <use xlink:href="#DejaVuSans-75" x="119.042969"/>
      <use xlink:href="#DejaVuSans-72" x="182.421875"/>
      <use xlink:href="#DejaVuSans-69" x="223.535156"/>
      <use xlink:href="#DejaVuSans-6e" x="251.318359"/>
      <use xlink:href="#DejaVuSans-67" x="314.697266"/>
      <use xlink:href="#DejaVuSans-20" x="378.173828"/>
      <use xlink:href="#DejaVuSans-28" x="409.960938"/>
      <use xlink:href="#DejaVuSans-51" x="448.974609"/>
      <use xlink:href="#DejaVuSans-44" x="527.685547"/>
      <use xlink:href="#DejaVuSans-3d" x="604.6875"/>
      <use xlink:href="#DejaVuSans-32" x="688.476562"/>
      <use xlink:href="#DejaVuSans-29" x="752.099609"/>
     </g>
    </g>
    <g id="line2d_10">
     <path d="M 300.658594 347.207812 
L 310.658594 347.207812 
L 320.658594 347.207812 
" style="fill: none; stroke: #c5b0d5; stroke-width: 1.5; stroke-linecap: square"/>
     <defs>
      <path id="m8890ab77cc" d="M 0 3 
C 0.795609 3 1.55874 2.683901 2.12132 2.12132 
C 2.683901 1.55874 3 0.795609 3 0 
C 3 -0.795609 2.683901 -1.55874 2.12132 -2.12132 
C 1.55874 -2.683901 0.795609 -3 0 -3 
C -0.795609 -3 -1.55874 -2.683901 -2.12132 -2.12132 
C -2.683901 -1.55874 -3 -0.795609 -3 0 
C -3 0.795609 -2.683901 1.55874 -2.12132 2.12132 
C -1.55874 2.683901 -0.795609 3 0 3 
z
" style="stroke: #c5b0d5"/>
     </defs>
     <g>
      <use xlink:href="#m8890ab77cc" x="310.658594" y="347.207812" style="fill: #c5b0d5; stroke: #c5b0d5"/>
     </g>
    </g>
    <g id="text_10">
     <!-- liburing (QD=4) -->
     <g transform="translate(328.658594 350.707812) scale(0.1 -0.1)">
      <use xlink:href="#DejaVuSans-6c"/>
      <use xlink:href="#DejaVuSans-69" x="27.783203"/>
      <use xlink:href="#DejaVuSans-62" x="55.566406"/>
      <use xlink:href="#DejaVuSans-75" x="119.042969"/>
      <use xlink:href="#DejaVuSans-72" x="182.421875"/>
      <use xlink:href="#DejaVuSans-69" x="223.535156"/>
      <use xlink:href="#DejaVuSans-6e" x="251.318359"/>
      <use xlink:href="#DejaVuSans-67" x="314.697266"/>
      <use xlink:href="#DejaVuSans-20" x="378.173828"/>
      <use xlink:href="#DejaVuSans-28" x="409.960938"/>
      <use xlink:href="#DejaVuSans-51" x="448.974609"/>
      <use xlink:href="#DejaVuSans-44" x="527.685547"/>
      <use xlink:href="#DejaVuSans-3d" x="604.6875"/>
      <use xlink:href="#DejaVuSans-34" x="688.476562"/>
      <use xlink:href="#DejaVuSans-29" x="752.099609"/>
     </g>
    </g>
    <g id="line2d_11">
     <path d="M 300.658594 361.885938 
L 310.658594 361.885938 
L 320.658594 361.885938 
" style="fill: none; stroke: #8c564b; stroke-width: 1.5; stroke-linecap: square"/>
     <defs>
      <path id="mea2835f326" d="M 0 3 
C 0.795609 3 1.55874 2.683901 2.12132 2.12132 
C 2.683901 1.55874 3 0.795609 3 0 
C 3 -0.795609 2.683901 -1.55874 2.12132 -2.12132 
C 1.55874 -2.683901 0.795609 -3 0 -3 
C -0.795609 -3 -1.55874 -2.683901 -2.12132 -2.12132 
C -2.683901 -1.55874 -3 -0.795609 -3 0 
C -3 0.795609 -2.683901 1.55874 -2.12132 2.12132 
C -1.55874 2.683901 -0.795609 3 0 3 
z
" style="stroke: #8c564b"/>
     </defs>
     <g>
      <use xlink:href="#mea2835f326" x="310.658594" y="361.885938" style="fill: #8c564b; stroke: #8c564b"/>
     </g>
    </g>
    <g id="text_11">
     <!-- liburing (QD=32) -->
     <g transform="translate(328.658594 365.385938) scale(0.1 -0.1)">
      <use xlink:href="#DejaVuSans-6c"/>
      <use xlink:href="#DejaVuSans-69" x="27.783203"/>
      <use xlink:href="#DejaVuSans-62" x="55.566406"/>
      <use xlink:href="#DejaVuSans-75" x="119.042969"/>
      <use xlink:href="#DejaVuSans-72" x="182.421875"/>
      <use xlink:href="#DejaVuSans-69" x="223.535156"/>
      <use xlink:href="#DejaVuSans-6e" x="251.318359"/>
      <use xlink:href="#DejaVuSans-67" x="314.697266"/>
      <use xlink:href="#DejaVuSans-20" x="378.173828"/>
      <use xlink:href="#DejaVuSans-28" x="409.960938"/>
      <use xlink:href="#DejaVuSans-51" x="448.974609"/>
      <use xlink:href="#DejaVuSans-44" x="527.685547"/>
      <use xlink:href="#DejaVuSans-3d" x="604.6875"/>
      <use xlink:href="#DejaVuSans-33" x="688.476562"/>
      <use xlink:href="#DejaVuSans-32" x="752.099609"/>
      <use xlink:href="#DejaVuSans-29" x="815.722656"/>
     </g>
    </g>
    <g id="line2d_12">
     <path d="M 300.658594 376.564062 
L 310.658594 376.564062 
L 320.658594 376.564062 
" style="fill: none; stroke: #c49c94; stroke-width: 1.5; stroke-linecap: square"/>
     <defs>
      <path id="mdf276a639d" d="M 0 3 
C 0.795609 3 1.55874 2.683901 2.12132 2.12132 
C 2.683901 1.55874 3 0.795609 3 0 
C 3 -0.795609 2.683901 -1.55874 2.12132 -2.12132 
C 1.55874 -2.683901 0.795609 -3 0 -3 
C -0.795609 -3 -1.55874 -2.683901 -2.12132 -2.12132 
C -2.683901 -1.55874 -3 -0.795609 -3 0 
C -3 0.795609 -2.683901 1.55874 -2.12132 2.12132 
C -1.55874 2.683901 -0.795609 3 0 3 
z
" style="stroke: #c49c94"/>
     </defs>
     <g>
      <use xlink:href="#mdf276a639d" x="310.658594" y="376.564062" style="fill: #c49c94; stroke: #c49c94"/>
     </g>
    </g>
    <g id="text_12">
     <!-- liburing (QD=64) -->
     <g transform="translate(328.658594 380.064062) scale(0.1 -0.1)">
      <use xlink:href="#DejaVuSans-6c"/>
      <use xlink:href="#DejaVuSans-69" x="27.783203"/>
      <use xlink:href="#DejaVuSans-62" x="55.566406"/>
      <use xlink:href="#DejaVuSans-75" x="119.042969"/>
      <use xlink:href="#DejaVuSans-72" x="182.421875"/>
      <use xlink:href="#DejaVuSans-69" x="223.535156"/>
      <use xlink:href="#DejaVuSans-6e" x="251.318359"/>
      <use xlink:href="#DejaVuSans-67" x="314.697266"/>
      <use xlink:href="#DejaVuSans-20" x="378.173828"/>
      <use xlink:href="#DejaVuSans-28" x="409.960938"/>
      <use xlink:href="#DejaVuSans-51" x="448.974609"/>
      <use xlink:href="#DejaVuSans-44" x="527.685547"/>
      <use xlink:href="#DejaVuSans-3d" x="604.6875"/>
      <use xlink:href="#DejaVuSans-36" x="688.476562"/>
      <use xlink:href="#DejaVuSans-34" x="752.099609"/>
      <use xlink:href="#DejaVuSans-29" x="815.722656"/>
     </g>
    </g>
    <g id="line2d_13">
     <path d="M 300.658594 391.242188 
L 310.658594 391.242188 
L 320.658594 391.242188 
" style="fill: none; stroke: #e377c2; stroke-width: 1.5; stroke-linecap: square"/>
     <defs>
      <path id="m4f670cd420" d="M 0 3 
C 0.795609 3 1.55874 2.683901 2.12132 2.12132 
C 2.683901 1.55874 3 0.795609 3 0 
C 3 -0.795609 2.683901 -1.55874 2.12132 -2.12132 
C 1.55874 -2.683901 0.795609 -3 0 -3 
C -0.795609 -3 -1.55874 -2.683901 -2.12132 -2.12132 
C -2.683901 -1.55874 -3 -0.795609 -3 0 
C -3 0.795609 -2.683901 1.55874 -2.12132 2.12132 
C -1.55874 2.683901 -0.795609 3 0 3 
z
" style="stroke: #e377c2"/>
     </defs>
     <g>
      <use xlink:href="#m4f670cd420" x="310.658594" y="391.242188" style="fill: #e377c2; stroke: #e377c2"/>
     </g>
    </g>
    <g id="text_13">
     <!-- liburing (QD=128) -->
     <g transform="translate(328.658594 394.742188) scale(0.1 -0.1)">
      <use xlink:href="#DejaVuSans-6c"/>
      <use xlink:href="#DejaVuSans-69" x="27.783203"/>
      <use xlink:href="#DejaVuSans-62" x="55.566406"/>
      <use xlink:href="#DejaVuSans-75" x="119.042969"/>
      <use xlink:href="#DejaVuSans-72" x="182.421875"/>
      <use xlink:href="#DejaVuSans-69" x="223.535156"/>
      <use xlink:href="#DejaVuSans-6e" x="251.318359"/>
      <use xlink:href="#DejaVuSans-67" x="314.697266"/>
      <use xlink:href="#DejaVuSans-20" x="378.173828"/>
      <use xlink:href="#DejaVuSans-28" x="409.960938"/>
      <use xlink:href="#DejaVuSans-51" x="448.974609"/>
      <use xlink:href="#DejaVuSans-44" x="527.685547"/>
      <use xlink:href="#DejaVuSans-3d" x="604.6875"/>
      <use xlink:href="#DejaVuSans-31" x="688.476562"/>
      <use xlink:href="#DejaVuSans-32" x="752.099609"/>
      <use xlink:href="#DejaVuSans-38" x="815.722656"/>
      <use xlink:href="#DejaVuSans-29" x="879.345703"/>
     </g>
    </g>
    <g id="line2d_14">
     <path d="M 300.658594 405.920313 
L 310.658594 405.920313 
L 320.658594 405.920313 
" style="fill: none; stroke: #f7b6d2; stroke-width: 1.5; stroke-linecap: square"/>
     <defs>
      <path id="mbe8f7df86b" d="M 0 3 
C 0.795609 3 1.55874 2.683901 2.12132 2.12132 
C 2.683901 1.55874 3 0.795609 3 0 
C 3 -0.795609 2.683901 -1.55874 2.12132 -2.12132 
C 1.55874 -2.683901 0.795609 -3 0 -3 
C -0.795609 -3 -1.55874 -2.683901 -2.12132 -2.12132 
C -2.683901 -1.55874 -3 -0.795609 -3 0 
C -3 0.795609 -2.683901 1.55874 -2.12132 2.12132 
C -1.55874 2.683901 -0.795609 3 0 3 
z
" style="stroke: #f7b6d2"/>
     </defs>
     <g>
      <use xlink:href="#mbe8f7df86b" x="310.658594" y="405.920313" style="fill: #f7b6d2; stroke: #f7b6d2"/>
     </g>
    </g>
    <g id="text_14">
     <!-- liburing (QD=512) -->
     <g transform="translate(328.658594 409.420313) scale(0.1 -0.1)">
      <use xlink:href="#DejaVuSans-6c"/>
      <use xlink:href="#DejaVuSans-69" x="27.783203"/>
      <use xlink:href="#DejaVuSans-62" x="55.566406"/>
      <use xlink:href="#DejaVuSans-75" x="119.042969"/>
      <use xlink:href="#DejaVuSans-72" x="182.421875"/>
      <use xlink:href="#DejaVuSans-69" x="223.535156"/>
      <use xlink:href="#DejaVuSans-6e" x="251.318359"/>
      <use xlink:href="#DejaVuSans-67" x="314.697266"/>
      <use xlink:href="#DejaVuSans-20" x="378.173828"/>
      <use xlink:href="#DejaVuSans-28" x="409.960938"/>
      <use xlink:href="#DejaVuSans-51" x="448.974609"/>
      <use xlink:href="#DejaVuSans-44" x="527.685547"/>
      <use xlink:href="#DejaVuSans-3d" x="604.6875"/>
      <use xlink:href="#DejaVuSans-35" x="688.476562"/>
      <use xlink:href="#DejaVuSans-31" x="752.099609"/>
      <use xlink:href="#DejaVuSans-32" x="815.722656"/>
      <use xlink:href="#DejaVuSans-29" x="879.345703"/>
     </g>
    </g>
    <g id="line2d_15">
     <path d="M 440.496094 317.851562 
L 450.496094 317.851562 
L 460.496094 317.851562 
" style="fill: none; stroke: #7f7f7f; stroke-width: 1.5; stroke-linecap: square"/>
     <defs>
      <path id="mfd7849a1e7" d="M 0 3 
C 0.795609 3 1.55874 2.683901 2.12132 2.12132 
C 2.683901 1.55874 3 0.795609 3 0 
C 3 -0.795609 2.683901 -1.55874 2.12132 -2.12132 
C 1.55874 -2.683901 0.795609 -3 0 -3 
C -0.795609 -3 -1.55874 -2.683901 -2.12132 -2.12132 
C -2.683901 -1.55874 -3 -0.795609 -3 0 
C -3 0.795609 -2.683901 1.55874 -2.12132 2.12132 
C -1.55874 2.683901 -0.795609 3 0 3 
z
" style="stroke: #7f7f7f"/>
     </defs>
     <g>
      <use xlink:href="#mfd7849a1e7" x="450.496094" y="317.851562" style="fill: #7f7f7f; stroke: #7f7f7f"/>
     </g>
    </g>
    <g id="text_15">
     <!-- io_uring (QD=1) -->
     <g transform="translate(468.496094 321.351562) scale(0.1 -0.1)">
      <defs>
       <path id="DejaVuSans-6f" d="M 1959 3097 
Q 1497 3097 1228 2736 
Q 959 2375 959 1747 
Q 959 1119 1226 758 
Q 1494 397 1959 397 
Q 2419 397 2687 759 
Q 2956 1122 2956 1747 
Q 2956 2369 2687 2733 
Q 2419 3097 1959 3097 
z
M 1959 3584 
Q 2709 3584 3137 3096 
Q 3566 2609 3566 1747 
Q 3566 888 3137 398 
Q 2709 -91 1959 -91 
Q 1206 -91 779 398 
Q 353 888 353 1747 
Q 353 2609 779 3096 
Q 1206 3584 1959 3584 
z
" transform="scale(0.015625)"/>
       <path id="DejaVuSans-5f" d="M 3263 -1063 
L 3263 -1509 
L -63 -1509 
L -63 -1063 
L 3263 -1063 
z
" transform="scale(0.015625)"/>
      </defs>
      <use xlink:href="#DejaVuSans-69"/>
      <use xlink:href="#DejaVuSans-6f" x="27.783203"/>
      <use xlink:href="#DejaVuSans-5f" x="88.964844"/>
      <use xlink:href="#DejaVuSans-75" x="138.964844"/>
      <use xlink:href="#DejaVuSans-72" x="202.34375"/>
      <use xlink:href="#DejaVuSans-69" x="243.457031"/>
      <use xlink:href="#DejaVuSans-6e" x="271.240234"/>
      <use xlink:href="#DejaVuSans-67" x="334.619141"/>
      <use xlink:href="#DejaVuSans-20" x="398.095703"/>
      <use xlink:href="#DejaVuSans-28" x="429.882812"/>
      <use xlink:href="#DejaVuSans-51" x="468.896484"/>
      <use xlink:href="#DejaVuSans-44" x="547.607422"/>
      <use xlink:href="#DejaVuSans-3d" x="624.609375"/>
      <use xlink:href="#DejaVuSans-31" x="708.398438"/>
      <use xlink:href="#DejaVuSans-29" x="772.021484"/>
     </g>
    </g>
    <g id="line2d_16">
     <path d="M 440.496094 332.807813 
L 450.496094 332.807813 
L 460.496094 332.807813 
" style="fill: none; stroke: #c7c7c7; stroke-width: 1.5; stroke-linecap: square"/>
     <defs>
      <path id="m09f64f91ea" d="M 0 3 
C 0.795609 3 1.55874 2.683901 2.12132 2.12132 
C 2.683901 1.55874 3 0.795609 3 0 
C 3 -0.795609 2.683901 -1.55874 2.12132 -2.12132 
C 1.55874 -2.683901 0.795609 -3 0 -3 
C -0.795609 -3 -1.55874 -2.683901 -2.12132 -2.12132 
C -2.683901 -1.55874 -3 -0.795609 -3 0 
C -3 0.795609 -2.683901 1.55874 -2.12132 2.12132 
C -1.55874 2.683901 -0.795609 3 0 3 
z
" style="stroke: #c7c7c7"/>
     </defs>
     <g>
      <use xlink:href="#m09f64f91ea" x="450.496094" y="332.807813" style="fill: #c7c7c7; stroke: #c7c7c7"/>
     </g>
    </g>
    <g id="text_16">
     <!-- io_uring (QD=2) -->
     <g transform="translate(468.496094 336.307813) scale(0.1 -0.1)">
      <use xlink:href="#DejaVuSans-69"/>
      <use xlink:href="#DejaVuSans-6f" x="27.783203"/>
      <use xlink:href="#DejaVuSans-5f" x="88.964844"/>
      <use xlink:href="#DejaVuSans-75" x="138.964844"/>
      <use xlink:href="#DejaVuSans-72" x="202.34375"/>
      <use xlink:href="#DejaVuSans-69" x="243.457031"/>
      <use xlink:href="#DejaVuSans-6e" x="271.240234"/>
      <use xlink:href="#DejaVuSans-67" x="334.619141"/>
      <use xlink:href="#DejaVuSans-20" x="398.095703"/>
      <use xlink:href="#DejaVuSans-28" x="429.882812"/>
      <use xlink:href="#DejaVuSans-51" x="468.896484"/>
      <use xlink:href="#DejaVuSans-44" x="547.607422"/>
      <use xlink:href="#DejaVuSans-3d" x="624.609375"/>
      <use xlink:href="#DejaVuSans-32" x="708.398438"/>
      <use xlink:href="#DejaVuSans-29" x="772.021484"/>
     </g>
    </g>
    <g id="line2d_17">
     <path d="M 440.496094 347.764063 
L 450.496094 347.764063 
L 460.496094 347.764063 
" style="fill: none; stroke: #bcbd22; stroke-width: 1.5; stroke-linecap: square"/>
     <defs>
      <path id="m7f8f5d2ff5" d="M 0 3 
C 0.795609 3 1.55874 2.683901 2.12132 2.12132 
C 2.683901 1.55874 3 0.795609 3 0 
C 3 -0.795609 2.683901 -1.55874 2.12132 -2.12132 
C 1.55874 -2.683901 0.795609 -3 0 -3 
C -0.795609 -3 -1.55874 -2.683901 -2.12132 -2.12132 
C -2.683901 -1.55874 -3 -0.795609 -3 0 
C -3 0.795609 -2.683901 1.55874 -2.12132 2.12132 
C -1.55874 2.683901 -0.795609 3 0 3 
z
" style="stroke: #bcbd22"/>
     </defs>
     <g>
      <use xlink:href="#m7f8f5d2ff5" x="450.496094" y="347.764063" style="fill: #bcbd22; stroke: #bcbd22"/>
     </g>
    </g>
    <g id="text_17">
     <!-- io_uring (QD=4) -->
     <g transform="translate(468.496094 351.264063) scale(0.1 -0.1)">
      <use xlink:href="#DejaVuSans-69"/>
      <use xlink:href="#DejaVuSans-6f" x="27.783203"/>
      <use xlink:href="#DejaVuSans-5f" x="88.964844"/>
      <use xlink:href="#DejaVuSans-75" x="138.964844"/>
      <use xlink:href="#DejaVuSans-72" x="202.34375"/>
      <use xlink:href="#DejaVuSans-69" x="243.457031"/>
      <use xlink:href="#DejaVuSans-6e" x="271.240234"/>
      <use xlink:href="#DejaVuSans-67" x="334.619141"/>
      <use xlink:href="#DejaVuSans-20" x="398.095703"/>
      <use xlink:href="#DejaVuSans-28" x="429.882812"/>
      <use xlink:href="#DejaVuSans-51" x="468.896484"/>
      <use xlink:href="#DejaVuSans-44" x="547.607422"/>
      <use xlink:href="#DejaVuSans-3d" x="624.609375"/>
      <use xlink:href="#DejaVuSans-34" x="708.398438"/>
      <use xlink:href="#DejaVuSans-29" x="772.021484"/>
     </g>
    </g>
    <g id="line2d_18">
     <path d="M 440.496094 362.720312 
L 450.496094 362.720312 
L 460.496094 362.720312 
" style="fill: none; stroke: #dbdb8d; stroke-width: 1.5; stroke-linecap: square"/>
     <defs>
      <path id="mcb091b90d1" d="M 0 3 
C 0.795609 3 1.55874 2.683901 2.12132 2.12132 
C 2.683901 1.55874 3 0.795609 3 0 
C 3 -0.795609 2.683901 -1.55874 2.12132 -2.12132 
C 1.55874 -2.683901 0.795609 -3 0 -3 
C -0.795609 -3 -1.55874 -2.683901 -2.12132 -2.12132 
C -2.683901 -1.55874 -3 -0.795609 -3 0 
C -3 0.795609 -2.683901 1.55874 -2.12132 2.12132 
C -1.55874 2.683901 -0.795609 3 0 3 
z
" style="stroke: #dbdb8d"/>
     </defs>
     <g>
      <use xlink:href="#mcb091b90d1" x="450.496094" y="362.720312" style="fill: #dbdb8d; stroke: #dbdb8d"/>
     </g>
    </g>
    <g id="text_18">
     <!-- io_uring (QD=32) -->
     <g transform="translate(468.496094 366.220312) scale(0.1 -0.1)">
      <use xlink:href="#DejaVuSans-69"/>
      <use xlink:href="#DejaVuSans-6f" x="27.783203"/>
      <use xlink:href="#DejaVuSans-5f" x="88.964844"/>
      <use xlink:href="#DejaVuSans-75" x="138.964844"/>
      <use xlink:href="#DejaVuSans-72" x="202.34375"/>
      <use xlink:href="#DejaVuSans-69" x="243.457031"/>
      <use xlink:href="#DejaVuSans-6e" x="271.240234"/>
      <use xlink:href="#DejaVuSans-67" x="334.619141"/>
      <use xlink:href="#DejaVuSans-20" x="398.095703"/>
      <use xlink:href="#DejaVuSans-28" x="429.882812"/>
      <use xlink:href="#DejaVuSans-51" x="468.896484"/>
      <use xlink:href="#DejaVuSans-44" x="547.607422"/>
      <use xlink:href="#DejaVuSans-3d" x="624.609375"/>
      <use xlink:href="#DejaVuSans-33" x="708.398438"/>
      <use xlink:href="#DejaVuSans-32" x="772.021484"/>
      <use xlink:href="#DejaVuSans-29" x="835.644531"/>
     </g>
    </g>
    <g id="line2d_19">
     <path d="M 440.496094 377.676562 
L 450.496094 377.676562 
L 460.496094 377.676562 
" style="fill: none; stroke: #17becf; stroke-width: 1.5; stroke-linecap: square"/>
     <defs>
      <path id="m951f19a7ed" d="M 0 3 
C 0.795609 3 1.55874 2.683901 2.12132 2.12132 
C 2.683901 1.55874 3 0.795609 3 0 
C 3 -0.795609 2.683901 -1.55874 2.12132 -2.12132 
C 1.55874 -2.683901 0.795609 -3 0 -3 
C -0.795609 -3 -1.55874 -2.683901 -2.12132 -2.12132 
C -2.683901 -1.55874 -3 -0.795609 -3 0 
C -3 0.795609 -2.683901 1.55874 -2.12132 2.12132 
C -1.55874 2.683901 -0.795609 3 0 3 
z
" style="stroke: #17becf"/>
     </defs>
     <g>
      <use xlink:href="#m951f19a7ed" x="450.496094" y="377.676562" style="fill: #17becf; stroke: #17becf"/>
     </g>
    </g>
    <g id="text_19">
     <!-- io_uring (QD=64) -->
     <g transform="translate(468.496094 381.176562) scale(0.1 -0.1)">
      <use xlink:href="#DejaVuSans-69"/>
      <use xlink:href="#DejaVuSans-6f" x="27.783203"/>
      <use xlink:href="#DejaVuSans-5f" x="88.964844"/>
      <use xlink:href="#DejaVuSans-75" x="138.964844"/>
      <use xlink:href="#DejaVuSans-72" x="202.34375"/>
      <use xlink:href="#DejaVuSans-69" x="243.457031"/>
      <use xlink:href="#DejaVuSans-6e" x="271.240234"/>
      <use xlink:href="#DejaVuSans-67" x="334.619141"/>
      <use xlink:href="#DejaVuSans-20" x="398.095703"/>
      <use xlink:href="#DejaVuSans-28" x="429.882812"/>
      <use xlink:href="#DejaVuSans-51" x="468.896484"/>
      <use xlink:href="#DejaVuSans-44" x="547.607422"/>
      <use xlink:href="#DejaVuSans-3d" x="624.609375"/>
      <use xlink:href="#DejaVuSans-36" x="708.398438"/>
      <use xlink:href="#DejaVuSans-34" x="772.021484"/>
      <use xlink:href="#DejaVuSans-29" x="835.644531"/>
     </g>
    </g>
    <g id="line2d_20">
     <path d="M 440.496094 392.632812 
L 450.496094 392.632812 
L 460.496094 392.632812 
" style="fill: none; stroke: #9edae5; stroke-width: 1.5; stroke-linecap: square"/>
     <defs>
      <path id="m0523d61ec3" d="M 0 3 
C 0.795609 3 1.55874 2.683901 2.12132 2.12132 
C 2.683901 1.55874 3 0.795609 3 0 
C 3 -0.795609 2.683901 -1.55874 2.12132 -2.12132 
C 1.55874 -2.683901 0.795609 -3 0 -3 
C -0.795609 -3 -1.55874 -2.683901 -2.12132 -2.12132 
C -2.683901 -1.55874 -3 -0.795609 -3 0 
C -3 0.795609 -2.683901 1.55874 -2.12132 2.12132 
C -1.55874 2.683901 -0.795609 3 0 3 
z
" style="stroke: #9edae5"/>
     </defs>
     <g>
      <use xlink:href="#m0523d61ec3" x="450.496094" y="392.632812" style="fill: #9edae5; stroke: #9edae5"/>
     </g>
    </g>
    <g id="text_20">
     <!-- io_uring (QD=128) -->
     <g transform="translate(468.496094 396.132812) scale(0.1 -0.1)">
      <use xlink:href="#DejaVuSans-69"/>
      <use xlink:href="#DejaVuSans-6f" x="27.783203"/>
      <use xlink:href="#DejaVuSans-5f" x="88.964844"/>
      <use xlink:href="#DejaVuSans-75" x="138.964844"/>
      <use xlink:href="#DejaVuSans-72" x="202.34375"/>
      <use xlink:href="#DejaVuSans-69" x="243.457031"/>
      <use xlink:href="#DejaVuSans-6e" x="271.240234"/>
      <use xlink:href="#DejaVuSans-67" x="334.619141"/>
      <use xlink:href="#DejaVuSans-20" x="398.095703"/>
      <use xlink:href="#DejaVuSans-28" x="429.882812"/>
      <use xlink:href="#DejaVuSans-51" x="468.896484"/>
      <use xlink:href="#DejaVuSans-44" x="547.607422"/>
      <use xlink:href="#DejaVuSans-3d" x="624.609375"/>
      <use xlink:href="#DejaVuSans-31" x="708.398438"/>
      <use xlink:href="#DejaVuSans-32" x="772.021484"/>
      <use xlink:href="#DejaVuSans-38" x="835.644531"/>
      <use xlink:href="#DejaVuSans-29" x="899.267578"/>
     </g>
    </g>
    <g id="line2d_21">
     <path d="M 440.496094 407.589063 
L 450.496094 407.589063 
L 460.496094 407.589063 
" style="fill: none; stroke: #8c6d31; stroke-width: 1.5; stroke-linecap: square"/>
     <defs>
      <path id="mc4d45672e9" d="M 0 3 
C 0.795609 3 1.55874 2.683901 2.12132 2.12132 
C 2.683901 1.55874 3 0.795609 3 0 
C 3 -0.795609 2.683901 -1.55874 2.12132 -2.12132 
C 1.55874 -2.683901 0.795609 -3 0 -3 
C -0.795609 -3 -1.55874 -2.683901 -2.12132 -2.12132 
C -2.683901 -1.55874 -3 -0.795609 -3 0 
C -3 0.795609 -2.683901 1.55874 -2.12132 2.12132 
C -1.55874 2.683901 -0.795609 3 0 3 
z
" style="stroke: #8c6d31"/>
     </defs>
     <g>
      <use xlink:href="#mc4d45672e9" x="450.496094" y="407.589063" style="fill: #8c6d31; stroke: #8c6d31"/>
     </g>
    </g>
    <g id="text_21">
     <!-- io_uring (QD=512) -->
     <g transform="translate(468.496094 411.089063) scale(0.1 -0.1)">
      <use xlink:href="#DejaVuSans-69"/>
      <use xlink:href="#DejaVuSans-6f" x="27.783203"/>
      <use xlink:href="#DejaVuSans-5f" x="88.964844"/>
      <use xlink:href="#DejaVuSans-75" x="138.964844"/>
      <use xlink:href="#DejaVuSans-72" x="202.34375"/>
      <use xlink:href="#DejaVuSans-69" x="243.457031"/>
      <use xlink:href="#DejaVuSans-6e" x="271.240234"/>
      <use xlink:href="#DejaVuSans-67" x="334.619141"/>
      <use xlink:href="#DejaVuSans-20" x="398.095703"/>
      <use xlink:href="#DejaVuSans-28" x="429.882812"/>
      <use xlink:href="#DejaVuSans-51" x="468.896484"/>
      <use xlink:href="#DejaVuSans-44" x="547.607422"/>
      <use xlink:href="#DejaVuSans-3d" x="624.609375"/>
      <use xlink:href="#DejaVuSans-35" x="708.398438"/>
      <use xlink:href="#DejaVuSans-31" x="772.021484"/>
      <use xlink:href="#DejaVuSans-32" x="835.644531"/>
      <use xlink:href="#DejaVuSans-29" x="899.267578"/>
     </g>
    </g>
   </g>
  </g>
 </g>
</svg>
